# Blender v2.80 (sub 74) OBJ File: 'S4G_LowpolyHouse_Bake.blend'
# www.blender.org
o QBlock.001_ToolMesh.014
v -1.770391 0.473301 0.001068
v 1.770391 0.473301 0.001068
v -1.164737 1.303394 0.001068
v -0.410579 1.778926 0.001068
v 1.164737 1.303394 0.001068
v 0.410579 1.778926 0.001068
v 1.512584 -2.802691 -0.000853
v -1.512584 -2.802691 -0.000853
v -1.866043 -0.653170 -0.000853
v 1.866043 -0.653170 -0.000853
v 0.000000 -2.802691 1.450839
v 0.000000 -0.659436 1.450839
v 0.000000 0.017599 1.450839
v 0.000000 -0.370027 1.450839
v -2.321579 -0.005797 3.719465
v -2.303863 -0.073470 3.719377
v -2.279153 -0.029817 3.771804
v -1.956873 -0.049880 -0.000750
v -2.069496 0.443152 3.771804
v -2.111021 0.474296 3.719900
v -0.485565 1.726445 3.771804
v -0.497386 1.778926 3.719324
v -1.370781 1.262554 3.771804
v -1.403363 1.303667 3.719352
v -1.771906 -0.346102 3.719350
v -1.696225 -0.326152 3.719411
v -1.746722 -0.301894 3.771804
v -1.515405 0.049741 3.771804
v -1.470200 0.017563 3.719399
v -0.324530 0.912673 3.719340
v -0.337693 0.963694 3.771804
v -0.940997 0.608107 3.719357
v -0.976297 0.649696 3.771804
v 2.321579 -0.005797 3.719465
v -1.446222 -0.376479 1.476935
v -1.238801 0.002728 1.477009
v -0.787228 0.571721 1.477053
v -1.094087 -2.802691 1.476967
v 2.303863 -0.073470 3.719377
v 2.279153 -0.029817 3.771804
v 1.956873 -0.049880 -0.000750
v -2.255398 -0.144326 3.457258
v -2.285597 -0.072939 3.517714
v -2.320459 -0.048064 3.435689
v -1.694221 -0.377786 3.436529
v -1.757775 -0.345824 3.517741
v -1.745695 -0.400046 3.453400
v -1.714801 -2.802691 3.117001
v -1.763824 -2.802691 3.064190
v -1.269517 -2.802691 3.064103
v -1.327776 -2.802691 3.117001
v -1.408608 -0.656012 1.476916
v -1.648867 -0.859465 3.405425
v -1.618673 -0.845541 3.345705
v -2.214886 -0.591458 3.345590
v -2.185182 -0.597046 3.403559
v 2.069496 0.443152 3.771804
v 2.111021 0.474296 3.719900
v 0.485565 1.726445 3.771804
v 0.497386 1.778926 3.719324
v 1.370781 1.262554 3.771804
v 1.403363 1.303667 3.719352
v 0.000000 0.873536 1.477075
v 1.771906 -0.346102 3.719350
v 1.696225 -0.326152 3.719411
v 1.746722 -0.301894 3.771804
v 1.515405 0.049741 3.771804
v 1.470200 0.017563 3.719399
v 0.324530 0.912673 3.719340
v 0.337693 0.963694 3.771804
v 0.940997 0.608107 3.719357
v 0.976297 0.649696 3.771804
v 1.446222 -0.376479 1.476935
v 1.238801 0.002728 1.477009
v 0.787228 0.571721 1.477053
v 1.094087 -2.802691 1.476967
v 2.255398 -0.144326 3.457258
v 2.285597 -0.072939 3.517714
v 2.320459 -0.048064 3.435689
v 1.694221 -0.377786 3.436529
v 1.757775 -0.345824 3.517741
v 1.745695 -0.400046 3.453400
v 1.714801 -2.802691 3.117001
v 1.763824 -2.802691 3.064190
v 1.269517 -2.802691 3.064103
v 1.327776 -2.802691 3.117001
v 1.408608 -0.656012 1.476916
v 1.648867 -0.859465 3.405425
v 1.618673 -0.845541 3.345705
v 2.214886 -0.591458 3.345590
v 2.185182 -0.597046 3.403559
v -1.118155 -2.802691 1.328509
v -0.682073 -2.802691 1.328509
v -1.186038 -2.536536 1.328509
v -1.140270 -2.481218 1.328509
v -0.779223 -2.465675 1.328509
v -0.721172 -2.516780 1.328509
v -0.805535 -2.802691 3.796815
v -0.850519 -2.802691 3.817336
v -1.258440 -2.802691 3.497026
v -1.296783 -2.802691 3.410381
v -1.341640 -2.536346 3.410403
v -1.302582 -2.534988 3.495442
v -1.299440 -2.481604 3.438204
v -0.851526 -2.516709 3.796823
v -0.907952 -2.465339 3.748997
v -0.897656 -2.518425 3.818862
v -0.316702 -2.472505 1.328509
v -0.276895 -2.511060 1.328509
v -0.764116 -2.802691 3.704901
v -0.800849 -2.802837 3.652530
v -0.317110 -2.802613 3.865283
v -0.355535 -2.802691 3.892579
v -0.326427 -2.511051 3.865285
v -0.366731 -2.472313 3.851621
v -0.365269 -2.512086 3.893471
v -0.847178 -2.525126 3.652564
v -0.811061 -2.524178 3.703984
v -0.811730 -2.484427 3.663325
v -0.725608 -2.525311 1.328509
v -0.685755 -2.484226 1.328509
v 1.140268 -2.481218 1.328509
v 1.186036 -2.536536 1.328509
v 1.118153 -2.802691 1.328509
v -0.268255 -2.802691 1.328509
v -0.276035 -2.502705 1.328509
v -0.223289 -2.449116 1.328509
v -0.266602 -2.802691 4.071159
v -0.319214 -2.802691 4.017572
v -0.328463 -2.502700 4.017573
v -0.275882 -2.502710 4.071159
v -0.275883 -2.449114 4.017563
v 0.223287 -2.449116 1.328509
v 0.779221 -2.465675 1.328509
v 0.850517 -2.802691 3.898092
v 1.258438 -2.802691 3.433205
v 1.296781 -2.802691 3.346560
v 1.334688 -2.536346 3.346582
v 1.295630 -2.534988 3.431621
v 1.292488 -2.481604 3.374383
v 0.266600 -2.802691 4.131405
v 0.275881 -2.502710 4.131405
v 0.275881 -2.449114 4.077808
v 0.907951 -2.465339 3.829753
v 0.897654 -2.518425 3.899619
vt 0.392843 0.693746
vt 0.396678 0.709561
vt 0.389982 0.696369
vt 0.426960 0.751179
vt 0.578474 0.692450
vt 0.596748 0.751179
vt 0.394582 0.935308
vt 0.404313 0.756006
vt 0.429319 0.928778
vt 0.352444 0.698480
vt 0.350793 0.703017
vt 0.404055 0.233872
vt 0.393855 0.054589
vt 0.428618 0.061049
vt 0.391571 0.659916
vt 0.344114 0.667089
vt 0.348835 0.699510
vt 0.336136 0.710665
vt 0.339191 0.668764
vt 0.702586 0.632416
vt 0.596748 0.444046
vt 0.703378 0.444046
vt 0.069088 0.178068
vt 0.387061 0.053326
vt 0.349864 0.242265
vt 0.056158 0.231467
vt 0.426960 0.622937
vt 0.575520 0.656432
vt 0.426960 0.651064
vt 0.825973 0.631897
vt 0.702441 0.659055
vt 0.070097 0.812365
vt 0.387794 0.936584
vt 0.112347 0.988577
vt 0.342632 0.711353
vt 0.344869 0.716359
vt 0.579457 0.631955
vt 0.319624 0.527439
vt 0.326451 0.463002
vt 0.325916 0.527088
vt 0.395501 0.589456
vt 0.386405 0.526043
vt 0.392905 0.525543
vt 0.350158 0.747796
vt 0.356206 0.745592
vt 0.829848 0.656416
vt 0.979789 0.622937
vt 0.979789 0.651064
vt 0.702190 0.694821
vt 0.331041 0.593827
vt 0.390062 0.399492
vt 0.344179 0.323020
vt 0.391785 0.329935
vt 0.348736 0.290565
vt 0.339236 0.321376
vt 0.335970 0.279453
vt 0.399686 0.275018
vt 0.355925 0.244449
vt 0.057293 0.758963
vt 0.396349 0.661858
vt 0.826634 0.692483
vt 0.044053 0.281457
vt 0.342474 0.278743
vt 0.389960 0.293523
vt 0.350680 0.287049
vt 0.388120 0.463633
vt 0.331446 0.396279
vt 0.426960 0.444046
vt 0.352355 0.291580
vt 0.392841 0.296128
vt 0.389431 0.298746
vt 0.344693 0.273727
vt 0.406473 0.280571
vt 0.396598 0.280312
vt 0.396213 0.400315
vt 0.396562 0.327954
vt 0.426960 0.687507
vt 0.400204 0.678271
vt 0.979789 0.751179
vt 0.979789 0.687507
vt 0.399785 0.714846
vt 0.325478 0.395100
vt 0.410362 0.753817
vt 0.436201 0.927485
vt 0.410116 0.236042
vt 0.807265 0.751179
vt 0.701138 0.768324
vt 0.435505 0.062328
vt 0.406537 0.709266
vt 0.325101 0.595027
vt 0.001953 0.455322
vt 0.320463 0.462585
vt 0.021526 0.374489
vt 0.389369 0.590326
vt 0.045310 0.708986
vt 0.979789 0.444046
vt 0.718601 0.931413
vt 0.023024 0.616039
vt 0.389426 0.691145
vt 0.657855 0.931413
vt 0.594275 0.931413
vt 0.807265 0.444046
vt 0.998047 0.705272
vt 0.394259 0.464227
vt 0.766339 0.280195
vt 0.822847 0.313215
vt 0.766350 0.313234
vt 0.915046 0.001953
vt 0.878487 0.314490
vt 0.878487 0.001953
vt 0.953825 0.266049
vt 0.919383 0.001953
vt 0.953825 0.001953
vt 0.766246 0.001975
vt 0.822832 0.270378
vt 0.766336 0.270397
vt 0.832632 0.270374
vt 0.822836 0.280176
vt 0.758616 0.270399
vt 0.832646 0.313212
vt 0.822742 0.001956
vt 0.758526 0.001978
vt 0.691268 0.305159
vt 0.746870 0.340071
vt 0.691273 0.340079
vt 0.691227 0.001962
vt 0.746865 0.298169
vt 0.691267 0.298177
vt 0.684954 0.298178
vt 0.754129 0.298168
vt 0.746866 0.305151
vt 0.754135 0.340070
vt 0.684913 0.001963
vt 0.746824 0.001954
vt 0.514917 0.360035
vt 0.604860 0.353335
vt 0.600501 0.387771
vt 0.448507 0.294421
vt 0.528482 0.329400
vt 0.471419 0.268261
vt 0.483888 0.001953
vt 0.479708 0.269474
vt 0.528775 0.319149
vt 0.476245 0.277230
vt 0.672997 0.346314
vt 0.672053 0.383708
vt 0.672572 0.338354
vt 0.607699 0.001953
vt 0.666209 0.001953
vt 0.875542 0.342060
vt 0.837591 0.001953
vt 0.875542 0.001953
vt 0.681716 0.339278
vt 0.681716 0.384272
vt 0.439538 0.278196
vt 0.532326 0.001953
vt 0.681716 0.001953
vt 0.474831 0.001953
vt 0.439538 0.001953
vt 0.605607 0.344554
vt 0.111733 0.001953
vt 0.003691 0.535404
vt 0.807265 0.931413
vt 0.915046 0.314490
vt 0.919383 0.266049
vt 0.758630 0.313237
vt 0.832542 0.001953
vt 0.684959 0.340080
vt 0.754089 0.001953
vt 0.837591 0.342060
vn -0.7211 -0.6422 0.2598
vn 0.4708 -0.8698 0.1478
vn 0.3368 -0.9277 0.1608
vn 0.8050 -0.5155 0.2936
vn 0.7014 -0.5056 0.5025
vn 0.5664 -0.7596 0.3196
vn 0.0887 -0.1579 0.9835
vn -0.1900 -0.0847 0.9781
vn -0.0135 -0.1399 0.9901
vn 0.1012 -0.0926 0.9905
vn 0.5588 -0.8147 0.1550
vn 0.6450 -0.2582 0.7192
vn -0.0887 -0.1579 0.9835
vn 0.0135 -0.1399 0.9901
vn -0.2574 0.0760 0.9633
vn 0.0636 0.0445 0.9970
vn 0.9245 0.3424 0.1676
vn 0.9927 0.1003 -0.0663
vn 0.8311 0.5538 -0.0508
vn 0.0000 0.0010 1.0000
vn 0.7594 0.1113 0.6411
vn -0.0000 0.0000 1.0000
vn -0.9822 -0.1643 -0.0905
vn -0.9816 -0.1908 -0.0092
vn -0.9735 -0.1573 -0.1663
vn -0.9899 0.0979 -0.1028
vn 0.9761 0.2139 0.0375
vn 0.7979 -0.1854 0.5736
vn 0.9239 -0.3166 0.2148
vn -0.6891 -0.0396 0.7236
vn 0.0000 -0.0008 1.0000
vn 0.9822 -0.1643 -0.0905
vn 0.9816 -0.1908 -0.0092
vn 0.9835 -0.1617 -0.0806
vn 0.4307 -0.8887 0.1574
vn 0.1185 -0.2264 0.9668
vn 0.6546 0.2316 0.7196
vn 0.2319 0.9727 -0.0029
vn -0.0198 0.0793 0.9967
vn 0.0179 0.0717 0.9973
vn -0.2285 -0.8761 0.4246
vn -0.0147 -0.0603 0.9981
vn -0.2908 -0.9549 0.0595
vn 0.8309 -0.2686 0.4874
vn 0.7044 -0.3823 0.5980
vn -0.6203 -0.0896 0.7793
vn -0.9846 0.1724 0.0283
vn -0.5718 -0.5806 0.5796
vn -0.0007 -0.0137 0.9999
vn 0.0499 0.0620 0.9968
vn -0.0697 -0.3396 0.9380
vn -0.0636 0.0445 0.9970
vn 0.0522 -0.0418 0.9978
vn -0.9268 0.3392 0.1611
vn -0.8308 0.5543 -0.0508
vn -0.9789 -0.1026 0.1765
vn -0.1446 -0.4917 0.8587
vn -0.3813 0.0650 0.9222
vn 0.9899 0.0979 -0.1028
vn -0.7882 -0.6061 0.1069
vn -0.7001 -0.5072 0.5026
vn -0.8539 0.5155 -0.0723
vn -0.4348 -0.8628 0.2579
vn -0.3347 -0.9290 0.1582
vn -0.5689 -0.8107 0.1382
vn -0.1960 -0.2577 0.9461
vn 0.0698 0.4465 0.8920
vn 0.9686 0.1369 0.2077
vn -0.1132 -0.0467 0.9925
vn 0.7288 -0.6153 0.3003
vn 0.0128 -0.1172 0.9930
vn -0.8296 -0.4667 0.3066
vn -0.0831 -0.8775 0.4723
vn 0.8896 -0.2495 0.3826
vn 0.1241 -0.2421 0.9623
vn -0.8419 0.4388 0.3142
vn -0.9686 0.1369 0.2077
vn -0.3681 -0.2711 0.8894
vn 0.3119 -0.7702 0.5563
vn 0.6274 0.7779 -0.0361
vn -0.2838 0.9589 -0.0068
vn -0.5666 0.7565 0.3265
vn -0.6844 0.7283 -0.0353
vn -0.2917 -0.5004 0.8152
vn 0.8539 0.5155 -0.0723
vn 0.6844 0.7283 -0.0353
vn 0.2723 -0.4142 0.8685
vn 0.5266 -0.7064 0.4730
vn -0.7594 0.1113 0.6411
vn -0.3572 -0.1170 0.9267
vn -0.6713 -0.1085 0.7332
vn -0.5343 -0.0908 0.8404
vn 0.9562 0.2887 0.0488
vn 0.9862 0.1529 0.0638
vn 0.9896 0.1353 0.0495
vn -0.9959 -0.0389 -0.0816
vn -0.9808 -0.1863 -0.0574
vn -0.9981 -0.0253 -0.0559
vn 0.0945 0.9955 0.0045
vn -0.1716 0.9851 0.0126
vn 0.0682 0.9975 0.0190
vn -0.8554 0.3383 0.3922
vn 0.2505 0.5889 0.7684
vn -0.1631 0.9865 -0.0119
vn -0.1103 -0.1029 0.9886
vn -0.4547 -0.0557 0.8889
vn -0.3177 -0.0198 0.9480
vn 0.0715 0.9974 0.0008
vn -0.1248 0.9921 0.0132
vn 0.0530 0.9985 0.0132
vn 0.7153 0.6936 0.0854
vn -0.7923 0.6089 0.0380
vn -0.7549 0.3766 0.5370
vn -0.8108 -0.1349 0.5695
vn 0.6956 0.7183 0.0137
vn -0.1148 0.9934 -0.0056
vn 0.5568 -0.0890 0.8258
vn 0.1500 0.1362 0.9793
vn 0.1520 -0.0068 0.9884
vn 0.7776 -0.1122 0.6187
vn 0.7166 0.3025 0.6284
vn 0.9980 -0.0044 -0.0633
vn 0.1595 0.9871 -0.0114
vn 0.1729 0.9849 0.0103
vn 0.2028 0.6534 0.7294
vn 0.6927 0.4079 0.5948
vn -0.1772 0.1383 0.9744
vn -0.1887 -0.0047 0.9820
vn -0.6513 0.7583 0.0292
vn 0.0155 0.9999 -0.0008
vn -0.0953 0.9954 -0.0019
vn -0.9996 -0.0297 0.0018
vn -0.9902 0.1383 -0.0192
vn -0.9995 -0.0259 -0.0189
vn -0.6318 0.5572 0.5388
vn 0.9842 -0.1679 -0.0567
vn 0.0343 0.9994 -0.0021
vn 0.9960 -0.0333 -0.0829
vn 0.9654 -0.2462 -0.0855
vn 0.4335 0.8610 0.2660
vn -0.9835 -0.1617 -0.0806
vn 0.2840 0.9588 -0.0068
vn -0.9656 -0.2463 -0.0829
vn 0.5790 0.0185 0.8151
vn -0.7173 0.6958 -0.0376
s 1
f 65/1/1 81/2/2 64/3/3
f 32/4/4 36/5/5 37/6/6
f 83/7/7 88/8/8 86/9/9
f 40/10/10 64/3/3 39/11/11
f 53/12/12 48/13/13 51/14/14
f 67/15/15 40/10/10 57/16/16
f 34/17/17 79/18/18 58/19/19
f 12/20/20 38/21/21 11/22/22
f 9/23/23 49/24/24 55/25/25
f 55/25/25 18/26/26 9/23/23
f 54/27/27 35/28/28 45/29/29
f 87/30/30 14/31/31 12/20/20
f 10/32/32 84/33/33 7/34/34
f 79/18/18 78/35/35 77/36/36
f 14/31/31 52/37/37 12/20/20
f 14/31/31 36/5/5 35/28/28
f 60/38/38 21/39/39 59/40/40
f 71/41/41 70/42/42 69/43/43
f 90/44/44 77/36/36 91/45/45
f 73/46/46 89/47/47 80/48/48
f 13/49/49 37/6/6 36/5/5
f 70/42/42 61/50/50 59/40/40
f 33/51/51 19/52/52 28/53/53
f 15/54/54 20/55/55 44/56/56
f 47/57/57 56/58/58 53/12/12
f 41/59/59 90/44/44 10/32/32
f 65/1/1 67/15/15 68/60/60
f 14/31/31 74/61/61 13/49/49
f 1/62/62 44/56/56 20/55/55
f 43/63/63 25/64/64 16/65/65
f 34/17/17 40/10/10 39/11/11
f 31/66/66 23/67/67 33/51/51
f 50/68/68 52/37/37 54/27/27
f 15/54/54 16/65/65 17/69/69
f 25/64/64 26/70/70 27/71/71
f 44/56/56 42/72/72 43/63/63
f 45/73/29 46/74/73 47/57/57
f 32/75/4 28/53/53 29/76/74
f 19/52/52 15/54/54 17/69/69
f 25/64/64 17/69/69 16/65/65
f 45/29/29 29/77/74 26/78/70
f 71/79/41 74/61/61 68/80/60
f 26/70/70 28/53/53 27/71/71
f 77/36/36 81/2/2 82/81/75
f 32/75/4 31/66/66 33/51/51
f 23/67/67 20/55/55 19/52/52
f 21/39/39 24/82/76 23/67/67
f 15/54/54 43/63/63 16/65/65
f 46/74/73 26/70/70 25/64/64
f 86/9/9 89/83/47 85/84/77
f 42/72/72 46/74/73 43/63/63
f 34/17/17 78/35/35 79/18/18
f 42/72/72 55/25/25 56/58/58
f 54/85/27 47/57/57 53/12/12
f 13/49/49 75/86/78 63/87/79
f 80/48/48 74/61/61 73/46/46
f 54/85/27 51/14/14 50/88/68
f 56/58/58 49/24/24 48/13/13
f 89/83/47 82/81/75 80/89/48
f 62/90/80 59/40/40 61/50/50
f 80/89/48 82/81/75 81/2/2
f 28/53/53 17/69/69 27/71/71
f 60/38/38 4/91/81 22/92/82
f 1/62/62 24/82/76 3/93/83
f 72/94/84 57/16/16 61/50/50
f 2/95/85 62/90/80 58/19/19
f 36/5/5 45/29/29 35/28/28
f 87/30/30 85/96/77 89/47/47
f 3/93/83 22/92/82 4/91/81
f 67/15/15 71/41/41 68/60/60
f 75/86/78 69/97/43 63/87/79
f 5/98/86 60/38/38 62/90/80
f 64/3/3 66/99/87 65/1/1
f 37/6/6 30/100/88 32/101/4
f 34/17/17 57/16/16 40/10/10
f 76/102/89 12/20/20 11/22/22
f 78/35/35 64/3/3 81/2/2
f 84/33/33 91/45/45 83/7/7
f 58/19/19 61/50/50 57/16/16
f 91/45/45 82/81/75 88/8/8
f 80/48/48 65/103/1 68/80/60
f 79/18/18 2/95/85 58/19/19
f 70/42/42 30/104/88 69/43/43
f 59/40/40 31/66/66 70/42/42
f 69/97/43 30/100/88 63/87/79
f 107/105/90 100/106/91 99/107/92
f 97/108/93 98/109/94 93/110/95
f 94/111/96 101/112/97 102/113/98
f 96/114/99 104/115/100 106/116/101
f 102/117/98 103/118/102 104/115/100
f 105/119/103 106/116/101 107/105/90
f 101/120/97 103/118/102 102/117/98
f 99/107/92 105/119/103 107/105/90
f 106/116/101 103/118/102 107/105/90
f 95/121/104 102/117/98 104/115/100
f 97/122/93 106/116/101 105/119/103
f 116/123/105 110/124/106 113/125/107
f 108/126/108 119/127/109 115/128/110
f 114/129/111 115/128/110 116/123/105
f 117/130/112 118/131/113 119/127/109
f 113/125/107 114/129/111 116/123/105
f 111/132/114 118/131/113 117/130/112
f 115/128/110 118/131/113 116/123/105
f 115/128/110 109/133/115 108/126/108
f 121/134/116 117/130/112 119/127/109
f 135/135/117 142/136/118 141/137/119
f 136/138/120 145/139/121 135/135/117
f 138/140/122 122/141/123 140/142/124
f 144/143/125 139/144/126 140/142/124
f 141/137/119 131/145/127 128/146/128
f 138/140/122 140/142/124 139/144/126
f 132/147/129 133/148/130 127/149/131
f 129/150/132 126/151/133 125/152/134
f 130/153/135 131/145/127 132/147/129
f 129/154/132 131/145/127 130/153/135
f 139/144/126 137/155/136 138/140/122
f 134/156/137 140/142/124 122/141/123
f 126/157/133 132/147/129 127/149/131
f 123/158/138 137/155/136 124/159/139
f 133/148/130 144/143/125 134/156/137
f 143/160/140 145/139/121 144/143/125
f 131/145/127 143/160/140 132/147/129
f 65/1/1 80/89/48 81/2/2
f 32/4/4 29/77/74 36/5/5
f 83/7/7 91/45/45 88/8/8
f 40/10/10 66/99/87 64/3/3
f 53/12/12 56/58/58 48/13/13
f 67/15/15 66/99/87 40/10/10
f 12/20/20 52/37/37 38/21/21
f 9/23/23 8/161/141 49/24/24
f 55/25/25 44/56/56 18/26/26
f 54/27/27 52/37/37 35/28/28
f 87/30/30 73/46/46 14/31/31
f 10/32/32 90/44/44 84/33/33
f 14/31/31 35/28/28 52/37/37
f 14/31/31 13/49/49 36/5/5
f 60/38/38 22/92/82 21/39/39
f 71/41/41 72/94/84 70/42/42
f 90/44/44 79/18/18 77/36/36
f 73/46/46 87/30/30 89/47/47
f 13/49/49 63/87/79 37/6/6
f 70/42/42 72/94/84 61/50/50
f 33/51/51 23/67/67 19/52/52
f 47/57/57 42/72/72 56/58/58
f 41/59/59 79/18/18 90/44/44
f 65/1/1 66/99/87 67/15/15
f 14/31/31 73/46/46 74/61/61
f 1/62/62 18/26/26 44/56/56
f 43/63/63 46/74/73 25/64/64
f 31/66/66 21/39/39 23/67/67
f 50/68/68 38/21/21 52/37/37
f 32/75/4 33/51/51 28/53/53
f 19/52/52 20/55/55 15/54/54
f 25/64/64 27/71/71 17/69/69
f 71/79/41 75/86/78 74/61/61
f 26/70/70 29/76/74 28/53/53
f 77/36/36 78/35/35 81/2/2
f 32/75/4 30/104/88 31/66/66
f 23/67/67 24/82/76 20/55/55
f 21/39/39 22/92/82 24/82/76
f 15/54/54 44/56/56 43/63/63
f 46/74/73 45/73/29 26/70/70
f 86/9/9 88/8/8 89/83/47
f 42/72/72 47/57/57 46/74/73
f 34/17/17 39/11/11 78/35/35
f 42/72/72 44/56/56 55/25/25
f 54/85/27 45/73/29 47/57/57
f 13/49/49 74/61/61 75/86/78
f 80/48/48 68/80/60 74/61/61
f 54/85/27 53/12/12 51/14/14
f 56/58/58 55/25/25 49/24/24
f 89/83/47 88/8/8 82/81/75
f 62/90/80 60/38/38 59/40/40
f 28/53/53 19/52/52 17/69/69
f 60/38/38 6/162/142 4/91/81
f 1/62/62 20/55/55 24/82/76
f 72/94/84 67/15/15 57/16/16
f 2/95/85 5/98/86 62/90/80
f 36/5/5 29/77/74 45/29/29
f 87/30/30 76/102/89 85/96/77
f 3/93/83 24/82/76 22/92/82
f 67/15/15 72/94/84 71/41/41
f 75/86/78 71/163/41 69/97/43
f 5/98/86 6/162/142 60/38/38
f 37/6/6 63/87/79 30/100/88
f 34/17/17 58/19/19 57/16/16
f 76/102/89 87/30/30 12/20/20
f 78/35/35 39/11/11 64/3/3
f 84/33/33 90/44/44 91/45/45
f 58/19/19 62/90/80 61/50/50
f 91/45/45 77/36/36 82/81/75
f 79/18/18 41/59/59 2/95/85
f 70/42/42 31/66/66 30/104/88
f 59/40/40 21/39/39 31/66/66
f 107/105/90 103/118/102 100/106/91
f 97/108/93 105/164/103 98/109/94
f 94/111/96 92/165/143 101/112/97
f 96/114/99 95/121/104 104/115/100
f 101/120/97 100/106/91 103/118/102
f 99/107/92 98/166/94 105/119/103
f 106/116/101 104/115/100 103/118/102
f 95/121/104 94/167/96 102/117/98
f 97/122/93 96/114/99 106/116/101
f 116/123/105 118/131/113 110/124/106
f 108/126/108 121/134/116 119/127/109
f 113/125/107 112/168/144 114/129/111
f 111/132/114 110/124/106 118/131/113
f 115/128/110 119/127/109 118/131/113
f 115/128/110 114/129/111 109/133/115
f 121/134/116 120/169/145 117/130/112
f 135/135/117 145/139/121 142/136/118
f 136/138/120 139/144/126 145/139/121
f 138/140/122 123/158/138 122/141/123
f 144/143/125 145/139/121 139/144/126
f 141/137/119 142/136/118 131/145/127
f 132/147/129 143/160/140 133/148/130
f 129/150/132 130/170/135 126/151/133
f 129/154/132 128/146/128 131/145/127
f 139/144/126 136/138/120 137/155/136
f 134/156/137 144/143/125 140/142/124
f 126/157/133 130/153/135 132/147/129
f 123/158/138 138/140/122 137/155/136
f 133/148/130 143/160/140 144/143/125
f 143/160/140 142/136/118 145/139/121
f 131/145/127 142/136/118 143/160/140
