# 3ds Max Wavefront OBJ Exporter v0.97b - (c)2007 guruware
# File Created: 04.04.2019 16:19:11

mtllib beet.mtl

#
# object Box001
#

v  -1.9968 0.0000 1.7846
v  -1.9968 0.0000 -1.2154
v  1.0032 0.0000 -1.2154
v  1.0032 0.0000 1.7846
v  -1.9968 0.3000 1.7846
v  1.0032 0.3000 1.7846
v  1.0032 0.3000 -1.2154
v  -1.9968 0.3000 -1.2154
# 8 vertices

vn -0.5774 -0.5774 0.5774
vn -0.5774 -0.5774 -0.5774
vn 0.5774 -0.5774 -0.5774
vn 0.5774 -0.5774 0.5774
vn -0.5774 0.5774 0.5774
vn 0.5774 0.5774 0.5774
vn 0.5774 0.5774 -0.5774
vn -0.5774 0.5774 -0.5774
# 8 vertex normals

vt 1.0000 0.0000 0.0000
vt 1.0000 1.0000 0.0000
vt 0.0000 1.0000 0.0000
vt 0.0000 0.0000 0.0000
# 4 texture coords

o Box001
g Box001
usemtl Erde
s 2
f 1/1/1 2/2/2 3/3/3 4/4/4 
s 4
f 5/4/5 6/1/6 7/2/7 8/3/8 
s 8
f 1/4/1 4/1/4 6/2/6 5/3/5 
s 16
f 4/4/4 3/1/3 7/2/7 6/3/6 
s 32
f 3/4/3 2/1/2 8/2/8 7/3/7 
s 64
f 2/4/2 1/1/1 5/2/5 8/3/8 
# 6 polygons

#
# object Box002
#

v  1.0064 0.0083 1.8446
v  1.0064 0.0083 -1.2145
v  1.2645 0.0083 -1.2145
v  1.1971 0.0083 -0.4497
v  1.2566 0.0083 0.3151
v  1.2645 0.0083 1.8446
v  1.0064 0.3419 1.8446
v  1.2472 0.3545 1.8088
v  1.1957 0.2658 0.3186
v  1.0064 0.3332 0.3151
v  1.0064 0.3380 -1.2268
v  1.2126 0.3392 -1.2145
v  0.9866 0.3356 -0.4558
v  1.1804 0.3025 -0.4479
v  1.2898 0.0083 -1.1818
v  -2.0944 0.0083 -1.1633
v  -2.0961 0.0083 -1.4214
v  -0.4040 0.0083 -1.4228
v  1.2881 0.0083 -1.4399
v  1.2898 0.3419 -1.1818
v  1.2881 0.3862 -1.4399
v  -0.3997 0.2658 -1.3619
v  -0.4023 0.3332 -1.1725
v  -2.0944 0.3352 -1.1633
v  -2.0958 0.3392 -1.3695
v  -1.8730 0.0083 -1.4322
v  -1.9899 0.0083 1.9500
v  -2.2479 0.0083 1.9414
v  -2.1816 0.0083 0.2505
v  -2.1309 0.0083 -1.4408
v  -1.8730 0.3419 -1.4322
v  -2.1309 0.3862 -1.4408
v  -2.1206 0.3706 0.2486
v  -1.9314 0.3565 0.2589
v  -1.9899 0.4276 1.9500
v  -2.1362 0.3976 1.9431
v  -2.0869 0.0083 1.6401
v  1.2939 0.0083 1.7933
v  1.2825 0.0083 2.0512
v  -0.4075 0.0083 1.9668
v  -2.0982 0.0083 1.8979
v  -2.0869 0.3419 1.6401
v  -2.0982 0.3862 1.8979
v  -0.4087 0.2658 1.9057
v  -0.3965 0.3332 1.7167
v  1.2939 0.3862 1.7933
v  1.2848 0.3392 1.9993
# 47 vertices

vn -0.5774 -0.5774 0.5774
vn -0.5781 -0.5807 -0.5733
vn 0.7955 -0.4535 -0.4019
vn 0.7496 0.6616 0.0197
vn 0.8498 -0.4898 -0.1949
vn 0.6161 -0.5392 0.5741
vn -0.5766 0.5734 0.5820
vn 0.5956 0.6584 0.4602
vn 0.6092 0.7838 -0.1205
vn 0.1681 0.9856 -0.0169
vn -0.5243 0.5839 -0.6198
vn 0.5400 0.6833 -0.4915
vn 0.9993 -0.0378 0.0003
vn 0.6455 0.7474 0.1575
vn 0.5904 -0.5753 0.5662
vn -0.5642 -0.5794 0.5882
vn -0.5879 -0.5609 -0.5829
vn -0.0006 0.7345 -0.6786
vn 0.5639 -0.5794 -0.5885
vn 0.6206 0.4166 0.6643
vn 0.5340 0.7218 -0.4402
vn -0.0064 0.4017 -0.9157
vn -0.0012 0.3702 -0.9289
vn -0.5668 0.5607 0.6036
vn -0.5832 0.6129 -0.5331
vn 0.6409 -0.5675 -0.5169
vn 0.5073 -0.5888 0.6292
vn -0.7867 -0.3936 0.4755
vn -0.5766 0.8078 -0.1224
vn -0.5166 -0.5871 -0.6232
vn 0.6619 0.5353 -0.5247
vn -0.5638 0.6090 -0.5579
vn -0.5594 0.8288 -0.0137
vn -0.6631 0.7241 -0.1899
vn 0.4730 0.6622 0.5812
vn -0.4413 0.6775 0.5885
vn -0.4879 -0.5920 -0.6415
vn 0.6567 -0.5651 -0.4994
vn 0.4825 -0.5792 0.6571
vn -0.0050 0.7345 0.6786
vn -0.6566 -0.5651 0.4996
vn -0.5034 0.4171 -0.7567
vn -0.6082 0.6938 0.3855
vn 0.0001 0.4009 0.9161
vn -0.0098 0.3726 0.9279
vn 0.6050 0.7158 -0.3487
vn 0.5116 0.3880 0.7666
# 47 vertex normals

vt 1.0000 0.0000 0.0000
vt 1.0000 1.0000 0.0000
vt 0.0000 1.0000 0.0000
vt 0.0000 0.7500 0.0000
vt 0.0000 0.5000 0.0000
vt 0.0000 0.0000 0.0000
vt 1.0000 0.5000 0.0000
vt 0.5000 0.0000 0.0000
vt 0.5000 1.0000 0.0000
vt 0.2500 1.0000 0.0000
vt 1.0000 0.7500 0.0000
vt 0.7500 0.0000 0.0000
vt 0.7500 1.0000 0.0000
# 13 texture coords

o Box002
g Box002
usemtl 03___Default
s 2
f 9/5/9 10/6/10 11/7/11 12/8/12 13/9/13 14/10/14 
s 4
f 15/10/15 16/5/16 17/11/17 18/9/18 
s 8
f 9/10/9 14/5/14 16/6/16 15/7/15 
s 16
f 14/10/14 13/12/13 17/13/17 16/7/16 
s 32
f 11/10/11 10/5/10 19/6/19 20/7/20 
s 64
f 10/10/10 9/5/9 15/6/15 18/13/18 21/14/21 19/7/19 
s 4
f 17/11/17 22/15/22 21/8/21 18/9/18 
s 16
f 13/12/13 12/16/12 22/17/22 17/13/17 
s 2
f 23/5/23 24/6/24 25/7/25 26/9/26 27/10/27 
s 4
f 28/10/28 29/5/29 30/11/30 31/9/31 
s 8
f 23/10/23 27/5/27 29/6/29 28/7/28 
s 16
f 27/10/27 26/12/26 30/13/30 29/7/29 
s 32
f 25/10/25 24/5/24 32/6/32 33/7/33 
s 64
f 24/10/24 23/5/23 28/6/28 31/13/31 32/7/32 
s 4
f 30/11/30 33/6/33 32/7/32 31/9/31 
s 16
f 26/12/26 25/5/25 33/6/33 30/13/30 
s 2
f 34/5/34 35/6/35 36/7/36 37/9/37 38/10/38 
s 4
f 39/10/39 40/5/40 41/11/41 42/9/42 
s 8
f 34/10/34 38/5/38 40/6/40 39/7/39 
s 16
f 38/10/38 37/12/37 41/13/41 40/7/40 
s 32
f 36/10/36 35/5/35 43/6/43 44/7/44 
s 64
f 35/10/35 34/5/34 39/6/39 42/13/42 43/7/43 
s 4
f 41/11/41 44/6/44 43/7/43 42/9/42 
s 16
f 37/12/37 36/5/36 44/6/44 41/13/41 
s 2
f 45/5/45 46/6/46 47/7/47 48/9/48 49/10/49 
s 4
f 50/10/50 51/5/51 52/11/52 53/9/53 
s 8
f 45/10/45 49/5/49 51/6/51 50/7/50 
s 16
f 49/10/49 48/12/48 52/13/52 51/7/51 
s 32
f 47/10/47 46/5/46 54/6/54 55/7/55 
s 64
f 46/10/46 45/5/45 50/6/50 53/13/53 54/7/54 
s 4
f 52/11/52 55/6/55 54/7/54 53/9/53 
s 16
f 48/12/48 47/5/47 55/6/55 52/13/52 
s 4
f 22/15/22 20/6/20 19/7/19 21/8/21 
s 16
f 12/16/12 11/5/11 20/6/20 22/17/22 
# 34 polygons

